<?xml version="1.0" standalone="no"?>
<!DOCTYPE svg PUBLIC "-//W3C//DTD SVG 20010904//EN"
 "http://www.w3.org/TR/2001/REC-SVG-20010904/DTD/svg10.dtd">
<svg version="1.0" xmlns="http://www.w3.org/2000/svg"
 width="260.000000pt" height="260.000000pt" viewBox="0 0 260.000000 260.000000"
 preserveAspectRatio="xMidYMid meet">
<metadata>
Created by potrace 1.11, written by Peter Selinger 2001-2013
</metadata>
<g transform="translate(0.000000,260.000000) scale(0.100000,-0.100000)"
fill="#000000" stroke="none">
<path d="M2385 2409 c-27 -15 -72 -40 -100 -55 -27 -14 -79 -43 -115 -64 -36
-20 -99 -55 -140 -77 -41 -22 -95 -52 -120 -65 -25 -14 -120 -67 -213 -117
-92 -50 -190 -105 -218 -121 -27 -17 -52 -30 -54 -30 -3 0 -70 -37 -151 -81
-155 -87 -179 -94 -322 -104 -49 -3 -99 -7 -109 -9 -11 -3 -62 -7 -113 -11
-51 -4 -101 -8 -110 -10 -9 -2 -52 -6 -96 -10 -43 -4 -95 -8 -114 -10 -19 -2
-69 -7 -111 -10 -42 -4 -85 -8 -95 -9 -16 -3 -19 -13 -20 -87 -19 -1114 -21
-1369 -13 -1369 5 0 23 8 41 19 18 10 103 57 188 104 85 46 247 135 360 197
113 62 223 123 245 135 22 12 139 76 260 143 l220 121 40 63 c22 35 44 72 51
83 15 27 650 1060 679 1105 12 19 48 78 80 130 32 52 69 112 82 133 13 20 22
36 21 36 -2 -1 -25 -14 -53 -30z"/>
</g>
</svg>
