<?xml version="1.0" encoding="UTF-8" standalone="no"?>
<!-- Created with Inkscape (http://www.inkscape.org/) -->

<svg
   xmlns:dc="http://purl.org/dc/elements/1.1/"
   xmlns:cc="http://creativecommons.org/ns#"
   xmlns:rdf="http://www.w3.org/1999/02/22-rdf-syntax-ns#"
   xmlns:svg="http://www.w3.org/2000/svg"
   xmlns="http://www.w3.org/2000/svg"
   xmlns:sodipodi="http://sodipodi.sourceforge.net/DTD/sodipodi-0.dtd"
   xmlns:inkscape="http://www.inkscape.org/namespaces/inkscape"
   width="160"
   height="90"
   viewBox="0 0 160 90.000001"
   id="svg24374"
   version="1.1"
   inkscape:version="0.91 r13725"
   sodipodi:docname="bug.svg"
   inkscape:export-filename="/Users/tom/projects/tmcfarlin412.github.io/assets/images/bugs.png"
   inkscape:export-xdpi="226.6875"
   inkscape:export-ydpi="226.6875">
  <defs
     id="defs24376" />
  <sodipodi:namedview
     id="base"
     pagecolor="#ffffff"
     bordercolor="#666666"
     borderopacity="1.0"
     inkscape:pageopacity="0.0"
     inkscape:pageshadow="2"
     inkscape:zoom="4.3354485"
     inkscape:cx="90.958521"
     inkscape:cy="21.385814"
     inkscape:document-units="px"
     inkscape:current-layer="g24998"
     showgrid="false"
     units="px"
     inkscape:snap-smooth-nodes="true"
     inkscape:snap-bbox="false"
     inkscape:object-paths="true"
     inkscape:snap-global="false"
     inkscape:window-width="1440"
     inkscape:window-height="855"
     inkscape:window-x="0"
     inkscape:window-y="1"
     inkscape:window-maximized="1" />
  <metadata
     id="metadata24379">
    <rdf:RDF>
      <cc:Work
         rdf:about="">
        <dc:format>image/svg+xml</dc:format>
        <dc:type
           rdf:resource="http://purl.org/dc/dcmitype/StillImage" />
        <dc:title></dc:title>
      </cc:Work>
    </rdf:RDF>
  </metadata>
  <g
     inkscape:label="Layer 1"
     inkscape:groupmode="layer"
     id="layer1"
     transform="translate(0,-962.36216)">
    <g
       id="g24984"
       transform="matrix(1.4817112,-0.65011304,0.65517749,1.4822642,74.332268,999.23453)">
      <path
         id="path24974"
         d="M 0,0 24,0 24,24 0,24 Z"
         inkscape:connector-curvature="0"
         style="fill:none" />
      <path
         id="path24976"
         d="m 21.95452,15.909305 -1.516336,-2.357921 c 0.413745,-0.802079 0.64316,-1.686948 0.667744,-2.593829 l 2.251655,0.480714 0.426018,-1.9504795 -2.997602,-0.6399692 C 20.630369,8.4019636 20.427249,7.9749267 20.162837,7.5637585 19.898417,7.1525939 19.594292,6.7908593 19.258875,6.4731126 L 19.909125,3.4629194 17.961374,3.0470866 17.463488,5.2935058 C 16.634866,4.9501037 15.73632,4.7944655 14.836916,4.8413392 L 13.32058,2.4834179 11.637057,3.5718196 12.764866,5.3255759 c -0.304763,0.13763 -0.60413,0.2836527 -0.890329,0.4686805 L 11.032775,6.3384578 9.9535323,4.6602216 8.2700081,5.7486238 9.3492511,7.4268592 8.5074886,7.9710606 C 8.2212898,8.1560887 7.9650932,8.3692398 7.7142928,8.5907818 L 6.5864844,6.8370254 4.9029604,7.9254272 6.419296,10.283349 c -0.9455479,1.846802 -0.9226109,4.124783 0.2753485,5.987625 1.197959,1.862841 3.2579602,2.823857 5.3259195,2.722419 l 1.516336,2.357921 1.683524,-1.088402 -1.127808,-1.753756 c 0.304761,-0.137631 0.604127,-0.283657 0.890325,-0.468685 l 0.841763,-0.544201 1.079239,1.678239 1.683524,-1.088402 -1.079239,-1.678238 0.841761,-0.544202 c 0.286197,-0.18503 0.542397,-0.398181 0.793199,-0.619718 l 1.127811,1.753755 1.683524,-1.088401 z m -9.971824,-0.681101 -2.1584845,-3.356471 1.6835245,-1.088402 2.158485,3.356472 -1.683525,1.088401 z m 3.367049,-2.176803 -2.158485,-3.3564716 1.683524,-1.0884023 2.158484,3.3564719 -1.683523,1.088402 z"
         inkscape:connector-curvature="0"
         style="fill:#006c00;fill-opacity:1" />
    </g>
    <g
       id="g25007"
       transform="matrix(1.5204133,0.56287957,-0.56465324,1.5156374,571.90608,-527.57732)">
      <g
         id="g24998">
        <rect
           style="opacity:1;fill:none;fill-opacity:1;stroke:#000000;stroke-width:0.61753964;stroke-linejoin:round;stroke-miterlimit:4;stroke-dasharray:none;stroke-opacity:1"
           id="rect24988"
           width="35.063473"
           height="34.936653"
           x="615.03571"
           y="746.96283"
           transform="matrix(0.80638146,0.59139576,-0.59071991,0.80687669,0,0)" />
        <path
           style="fill:none;fill-rule:evenodd;stroke:#000000;stroke-width:0.6175397px;stroke-linecap:butt;stroke-linejoin:miter;stroke-opacity:1"
           d="M 64.141717,973.05453 43.21604,1001.6346"
           id="path24990"
           inkscape:connector-curvature="0" />
        <path
           style="fill:none;fill-rule:evenodd;stroke:#000000;stroke-width:0.61753964px;stroke-linecap:butt;stroke-linejoin:miter;stroke-opacity:1"
           d="M 73.684674,980.37203 53.061337,1008.5363"
           id="path24992"
           inkscape:connector-curvature="0" />
        <path
           inkscape:connector-curvature="0"
           id="path24994"
           d="m 40.724301,985.26956 28.527473,20.92464"
           style="fill:none;fill-rule:evenodd;stroke:#000000;stroke-width:0.61753964px;stroke-linecap:butt;stroke-linejoin:miter;stroke-opacity:1" />
        <path
           inkscape:connector-curvature="0"
           id="path24996"
           d="M 48.077564,975.80668 76.05013,996.32701"
           style="fill:none;fill-rule:evenodd;stroke:#000000;stroke-width:0.61753964px;stroke-linecap:butt;stroke-linejoin:miter;stroke-opacity:1" />
      </g>
      <path
         inkscape:connector-curvature="0"
         id="path25005"
         d="m 48.001181,1004.8432 -23.617576,32.2597"
         style="fill:none;fill-rule:evenodd;stroke:#000000;stroke-width:1.23507929;stroke-linecap:butt;stroke-linejoin:miter;stroke-miterlimit:4;stroke-dasharray:none;stroke-opacity:1" />
    </g>
  </g>
</svg>
