<?xml version="1.0" encoding="UTF-8" standalone="no"?>
<!-- Created with Inkscape (http://www.inkscape.org/) -->

<svg
   xmlns:dc="http://purl.org/dc/elements/1.1/"
   xmlns:cc="http://creativecommons.org/ns#"
   xmlns:rdf="http://www.w3.org/1999/02/22-rdf-syntax-ns#"
   xmlns:svg="http://www.w3.org/2000/svg"
   xmlns="http://www.w3.org/2000/svg"
   xmlns:sodipodi="http://sodipodi.sourceforge.net/DTD/sodipodi-0.dtd"
   xmlns:inkscape="http://www.inkscape.org/namespaces/inkscape"
   width="160"
   height="90"
   viewBox="0 0 160 89.999999"
   id="svg4176"
   version="1.1"
   inkscape:version="0.91 r13725"
   sodipodi:docname="one-contact.svg"
   inkscape:export-filename="/Users/tom/projects/tmcfarlin412.github.io/assets/images/one-contact.png"
   inkscape:export-xdpi="270"
   inkscape:export-ydpi="270">
  <defs
     id="defs4178">
    <marker
       inkscape:stockid="TriangleOutM"
       orient="auto"
       refY="0.0"
       refX="0.0"
       id="marker22910"
       style="overflow:visible"
       inkscape:isstock="true">
      <path
         id="path22912"
         d="M 5.77,0.0 L -2.88,5.0 L -2.88,-5.0 L 5.77,0.0 z "
         style="fill-rule:evenodd;stroke:#000000;stroke-width:1pt;stroke-opacity:1;fill:#000000;fill-opacity:1"
         transform="scale(0.4)" />
    </marker>
    <marker
       inkscape:stockid="TriangleInM"
       orient="auto"
       refY="0.0"
       refX="0.0"
       id="marker22840"
       style="overflow:visible"
       inkscape:isstock="true">
      <path
         id="path22842"
         d="M 5.77,0.0 L -2.88,5.0 L -2.88,-5.0 L 5.77,0.0 z "
         style="fill-rule:evenodd;stroke:#000000;stroke-width:1pt;stroke-opacity:1;fill:#000000;fill-opacity:1"
         transform="scale(-0.4)" />
    </marker>
    <marker
       inkscape:stockid="TriangleOutM"
       orient="auto"
       refY="0.0"
       refX="0.0"
       id="TriangleOutM"
       style="overflow:visible"
       inkscape:isstock="true">
      <path
         id="path5289"
         d="M 5.77,0.0 L -2.88,5.0 L -2.88,-5.0 L 5.77,0.0 z "
         style="fill-rule:evenodd;stroke:#000000;stroke-width:1.0pt"
         transform="scale(0.4)" />
    </marker>
    <marker
       inkscape:stockid="TriangleInM"
       orient="auto"
       refY="0.0"
       refX="0.0"
       id="TriangleInM"
       style="overflow:visible"
       inkscape:isstock="true">
      <path
         id="path5280"
         d="M 5.77,0.0 L -2.88,5.0 L -2.88,-5.0 L 5.77,0.0 z "
         style="fill-rule:evenodd;stroke:#000000;stroke-width:1.0pt"
         transform="scale(-0.4)" />
    </marker>
    <marker
       inkscape:isstock="true"
       style="overflow:visible"
       id="marker19910"
       refX="0.0"
       refY="0.0"
       orient="auto"
       inkscape:stockid="TriangleOutM"
       inkscape:collect="always">
      <path
         transform="scale(0.4)"
         style="fill-rule:evenodd;stroke:#000000;stroke-width:1pt;stroke-opacity:1;fill:#000000;fill-opacity:1"
         d="M 5.77,0.0 L -2.88,5.0 L -2.88,-5.0 L 5.77,0.0 z "
         id="path19912" />
    </marker>
    <marker
       inkscape:isstock="true"
       style="overflow:visible"
       id="marker19852"
       refX="0.0"
       refY="0.0"
       orient="auto"
       inkscape:stockid="TriangleInM"
       inkscape:collect="always">
      <path
         transform="scale(-0.4)"
         style="fill-rule:evenodd;stroke:#000000;stroke-width:1pt;stroke-opacity:1;fill:#000000;fill-opacity:1"
         d="M 5.77,0.0 L -2.88,5.0 L -2.88,-5.0 L 5.77,0.0 z "
         id="path19854" />
    </marker>
    <marker
       inkscape:isstock="true"
       style="overflow:visible"
       id="marker16534"
       refX="0.0"
       refY="0.0"
       orient="auto"
       inkscape:stockid="TriangleOutM">
      <path
         transform="scale(0.4)"
         style="fill-rule:evenodd;stroke:#000000;stroke-width:1pt;stroke-opacity:1;fill:#000000;fill-opacity:1"
         d="M 5.77,0.0 L -2.88,5.0 L -2.88,-5.0 L 5.77,0.0 z "
         id="path16536" />
    </marker>
    <marker
       inkscape:isstock="true"
       style="overflow:visible"
       id="marker16488"
       refX="0.0"
       refY="0.0"
       orient="auto"
       inkscape:stockid="TriangleInM">
      <path
         transform="scale(-0.4)"
         style="fill-rule:evenodd;stroke:#000000;stroke-width:1pt;stroke-opacity:1;fill:#000000;fill-opacity:1"
         d="M 5.77,0.0 L -2.88,5.0 L -2.88,-5.0 L 5.77,0.0 z "
         id="path16490" />
    </marker>
    <marker
       inkscape:stockid="TriangleOutM"
       orient="auto"
       refY="0.0"
       refX="0.0"
       id="marker6360"
       style="overflow:visible"
       inkscape:isstock="true">
      <path
         id="path6362"
         d="M 5.77,0.0 L -2.88,5.0 L -2.88,-5.0 L 5.77,0.0 z "
         style="fill-rule:evenodd;stroke:#000000;stroke-width:1pt;stroke-opacity:1;fill:#000000;fill-opacity:1"
         transform="scale(0.4)" />
    </marker>
    <marker
       inkscape:stockid="TriangleInM"
       orient="auto"
       refY="0.0"
       refX="0.0"
       id="marker6278"
       style="overflow:visible"
       inkscape:isstock="true">
      <path
         id="path6280"
         d="M 5.77,0.0 L -2.88,5.0 L -2.88,-5.0 L 5.77,0.0 z "
         style="fill-rule:evenodd;stroke:#000000;stroke-width:1pt;stroke-opacity:1;fill:#000000;fill-opacity:1"
         transform="scale(-0.4)" />
    </marker>
    <marker
       inkscape:isstock="true"
       style="overflow:visible"
       id="marker5782"
       refX="0.0"
       refY="0.0"
       orient="auto"
       inkscape:stockid="TriangleInM">
      <path
         transform="scale(-0.4)"
         style="fill-rule:evenodd;stroke:#000000;stroke-width:1pt;stroke-opacity:1;fill:#000000;fill-opacity:1"
         d="M 5.77,0.0 L -2.88,5.0 L -2.88,-5.0 L 5.77,0.0 z "
         id="path5784" />
    </marker>
  </defs>
  <sodipodi:namedview
     id="base"
     pagecolor="#ffffff"
     bordercolor="#666666"
     borderopacity="1.0"
     inkscape:pageopacity="0.0"
     inkscape:pageshadow="2"
     inkscape:zoom="4.3354485"
     inkscape:cx="53.76621"
     inkscape:cy="20.910924"
     inkscape:document-units="px"
     inkscape:current-layer="g4742"
     showgrid="false"
     units="px"
     inkscape:snap-bbox="false"
     inkscape:object-nodes="true"
     inkscape:snap-global="false"
     inkscape:window-width="1440"
     inkscape:window-height="855"
     inkscape:window-x="0"
     inkscape:window-y="1"
     inkscape:window-maximized="1" />
  <metadata
     id="metadata4181">
    <rdf:RDF>
      <cc:Work
         rdf:about="">
        <dc:format>image/svg+xml</dc:format>
        <dc:type
           rdf:resource="http://purl.org/dc/dcmitype/StillImage" />
        <dc:title></dc:title>
      </cc:Work>
    </rdf:RDF>
  </metadata>
  <g
     inkscape:label="Layer 1"
     inkscape:groupmode="layer"
     id="layer1"
     transform="translate(0,-962.36222)">
    <g
       id="g4742"
       transform="matrix(-1,0,0,-1,270.16456,2025.0668)">
      <g
         id="g4835"
         transform="matrix(-1.4107321,0,0,-1.4107321,252.11775,1054.4679)">
        <path
           id="path4825"
           d="M 0,0 24,0 24,24 0,24 Z"
           inkscape:connector-curvature="0"
           style="fill:none" />
        <path
           id="path4827"
           d="m 6.62,10.79 c 1.44,2.83 3.76,5.14 6.59,6.59 l 2.2,-2.2 c 0.27,-0.27 0.67,-0.36 1.02,-0.24 1.12,0.37 2.33,0.57 3.57,0.57 0.55,0 1,0.45 1,1 L 21,20 c 0,0.55 -0.45,1 -1,1 C 10.61,21 3,13.39 3,4 3,3.45 3.45,3 4,3 l 3.5,0 c 0.55,0 1,0.45 1,1 0,1.25 0.2,2.45 0.57,3.57 0.11,0.35 0.03,0.74 -0.25,1.02 l -2.2,2.2 z"
           inkscape:connector-curvature="0" />
      </g>
      <g
         id="g5015"
         transform="matrix(-1.4107321,0,0,-1.4107321,158.06894,1054.4679)">
        <path
           id="path5005"
           d="M 20,2 4,2 C 2.9,2 2.01,2.9 2.01,4 L 2,22 6,18 20,18 c 1.1,0 2,-0.9 2,-2 L 22,4 C 22,2.9 21.1,2 20,2 Z m -2,12 -12,0 0,-2 12,0 0,2 z m 0,-3 -12,0 0,-2 12,0 0,2 z M 18,8 6,8 6,6 18,6 18,8 Z"
           inkscape:connector-curvature="0" />
        <path
           id="path5007"
           d="M 0,0 24,0 24,24 0,24 Z"
           inkscape:connector-curvature="0"
           style="fill:none" />
      </g>
      <g
         style="enable-background:new"
         id="g5108"
         transform="matrix(-0.06717772,0,0,-0.06717772,204.25282,1011.2687)">
        <g
           transform="translate(0,-540.36216)"
           id="layer1-6"
           inkscape:label="Layer 1">
          <g
             transform="matrix(1.2550971,0,0,1.2035246,-79.39773,-152.0527)"
             id="g5107">
            <path
               style="fill:#6998cf;fill-opacity:1;fill-rule:evenodd;stroke:none;stroke-width:1px;stroke-linecap:butt;stroke-linejoin:miter;stroke-opacity:1"
               d="M 92.319261,734.98883 88.756256,974.15113 238.14764,720.79347 92.319261,734.98883"
               id="path5101"
               inkscape:connector-curvature="0" />
            <path
               style="fill:#ff8080;fill-opacity:1;fill-rule:evenodd;stroke:none;stroke-width:1px;stroke-linecap:butt;stroke-linejoin:miter;stroke-opacity:1"
               d="M 88.756256,974.15113 296.31311,855.27102 238.14764,720.79347 88.756256,974.15113"
               id="path5103"
               inkscape:connector-curvature="0" />
            <path
               style="fill:#ffcc00;fill-opacity:1;fill-rule:evenodd;stroke:none;stroke-width:1px;stroke-linecap:butt;stroke-linejoin:miter;stroke-opacity:1"
               d="M 296.31311,855.27102 445.70074,601.91112 238.14764,720.79347"
               id="path5105"
               inkscape:connector-curvature="0" />
          </g>
        </g>
      </g>
      <path
         style="fill:none;fill-rule:evenodd;stroke:#000000;stroke-width:1.5;stroke-linecap:butt;stroke-linejoin:miter;stroke-miterlimit:4;stroke-dasharray:none;stroke-opacity:1;marker-start:url(#marker6278);marker-end:url(#marker6360)"
         d="m 189.14222,1034.1619 0,-23.4284"
         id="path6276"
         inkscape:connector-curvature="0" />
      <path
         sodipodi:nodetypes="cc"
         inkscape:connector-curvature="0"
         id="path19850"
         d="m 179.37249,1016.8104 c -1.08465,7.0009 -5.46388,11.2818 -12.58193,12.3651"
         style="fill:none;fill-rule:evenodd;stroke:#000000;stroke-width:2;stroke-linecap:butt;stroke-linejoin:miter;stroke-miterlimit:4;stroke-dasharray:none;stroke-opacity:1;marker-start:url(#marker19852);marker-end:url(#marker19910)" />
      <path
         style="fill:none;fill-rule:evenodd;stroke:#000000;stroke-width:2;stroke-linecap:butt;stroke-linejoin:miter;stroke-miterlimit:4;stroke-dasharray:none;stroke-opacity:1;marker-start:url(#marker22840);marker-end:url(#marker22910)"
         d="m 200.24941,1016.8104 c 1.08465,7.0009 5.46388,11.2818 12.58193,12.3651"
         id="path22838"
         inkscape:connector-curvature="0"
         sodipodi:nodetypes="cc" />
      <g
         id="g24351"
         transform="matrix(-0.76934335,0,0,-0.76934335,198.64365,1058.6665)">
        <path
           id="path24341"
           d="M 20,4 4,4 C 2.9,4 2.01,4.9 2.01,6 L 2,18 c 0,1.1 0.9,2 2,2 l 16,0 c 1.1,0 2,-0.9 2,-2 L 22,6 C 22,4.9 21.1,4 20,4 Z m 0,4 -8,5 -8,-5 0,-2 8,5 8,-5 0,2 z"
           inkscape:connector-curvature="0" />
        <path
           id="path24343"
           d="M 0,0 24,0 24,24 0,24 Z"
           inkscape:connector-curvature="0"
           style="fill:none" />
      </g>
    </g>
  </g>
</svg>
