<?xml version="1.0" encoding="UTF-8" standalone="no"?>
<!-- Created with Inkscape (http://www.inkscape.org/) -->

<svg
   xmlns:dc="http://purl.org/dc/elements/1.1/"
   xmlns:cc="http://creativecommons.org/ns#"
   xmlns:rdf="http://www.w3.org/1999/02/22-rdf-syntax-ns#"
   xmlns:svg="http://www.w3.org/2000/svg"
   xmlns="http://www.w3.org/2000/svg"
   xmlns:sodipodi="http://sodipodi.sourceforge.net/DTD/sodipodi-0.dtd"
   xmlns:inkscape="http://www.inkscape.org/namespaces/inkscape"
   width="31.999998"
   height="31.999998"
   viewBox="0 0 31.999999 31.999999"
   id="svg2"
   version="1.1"
   inkscape:version="0.91 r13725"
   inkscape:export-filename="/Users/tom/projects/tmcfarlin412.github.io/assets/images/rss.png"
   inkscape:export-xdpi="135"
   inkscape:export-ydpi="135"
   sodipodi:docname="rss.svg">
  <defs
     id="defs4" />
  <sodipodi:namedview
     id="base"
     pagecolor="#ffffff"
     bordercolor="#666666"
     borderopacity="1.0"
     inkscape:pageopacity="0.0"
     inkscape:pageshadow="2"
     inkscape:zoom="22.250001"
     inkscape:cx="15.999999"
     inkscape:cy="15.999999"
     inkscape:document-units="px"
     inkscape:current-layer="g4293"
     showgrid="false"
     fit-margin-top="0"
     fit-margin-left="0"
     fit-margin-right="0"
     fit-margin-bottom="0"
     units="px"
     inkscape:window-width="1440"
     inkscape:window-height="855"
     inkscape:window-x="0"
     inkscape:window-y="1"
     inkscape:window-maximized="1" />
  <metadata
     id="metadata7">
    <rdf:RDF>
      <cc:Work
         rdf:about="">
        <dc:format>image/svg+xml</dc:format>
        <dc:type
           rdf:resource="http://purl.org/dc/dcmitype/StillImage" />
        <dc:title></dc:title>
      </cc:Work>
    </rdf:RDF>
  </metadata>
  <g
     inkscape:label="Layer 1"
     inkscape:groupmode="layer"
     id="layer1"
     transform="translate(181.71429,-456.3622)">
    <g
       id="Flat_copy"
       transform="translate(-181.71429,456.3622)">
      <g
         id="g4293">
        <path
           id="path4295"
           d="M 16,0 C 7.163,0 0,7.163 0,16 0,24.836 7.163,32 16,32 24.837,32 32,24.836 32,16 32,7.163 24.837,0 16,0 Z"
           inkscape:connector-curvature="0"
           style="fill:#000000;fill-opacity:1"
           inkscape:export-xdpi="135"
           inkscape:export-ydpi="135" />
      </g>
      <path
         id="path4297"
         d="m 21.705,22.647 2.942,0 c 0,-8.434 -6.861,-15.3 -15.294,-15.3 l 0,2.934 c 6.81,0 12.352,5.548 12.352,12.366 z M 11.39,22.652 c 1.128,0 2.039,-0.906 2.039,-2.029 0,-1.117 -0.911,-2.033 -2.039,-2.033 -1.123,0 -2.036,0.916 -2.036,2.033 -10e-4,1.123 0.912,2.029 2.036,2.029 z m 5.116,-0.004 0,0 2.945,0 c 0,-5.57 -4.531,-10.101 -10.099,-10.101 l 0,2.933 c 1.91,0 3.705,0.746 5.057,2.1 1.352,1.349 2.097,3.152 2.097,5.068 z"
         inkscape:connector-curvature="0"
         style="fill:#ffffff" />
    </g>
  </g>
</svg>
