<?xml version="1.0" encoding="UTF-8" standalone="no"?>
<svg
   xmlns:dc="http://purl.org/dc/elements/1.1/"
   xmlns:cc="http://creativecommons.org/ns#"
   xmlns:rdf="http://www.w3.org/1999/02/22-rdf-syntax-ns#"
   xmlns:svg="http://www.w3.org/2000/svg"
   xmlns="http://www.w3.org/2000/svg"
   xmlns:sodipodi="http://sodipodi.sourceforge.net/DTD/sodipodi-0.dtd"
   xmlns:inkscape="http://www.inkscape.org/namespaces/inkscape"
   enable-background="new 0 0 32 32"
   version="1.1"
   viewBox="0 0 32 32"
   xml:space="preserve"
   id="svg4449"
   inkscape:version="0.91 r13725"
   sodipodi:docname="twitter.svg"
   width="32"
   height="32"><metadata
     id="metadata4462"><rdf:RDF><cc:Work
         rdf:about=""><dc:format>image/svg+xml</dc:format><dc:type
           rdf:resource="http://purl.org/dc/dcmitype/StillImage" /><dc:title></dc:title></cc:Work></rdf:RDF></metadata><defs
     id="defs4460" /><sodipodi:namedview
     pagecolor="#ffffff"
     bordercolor="#666666"
     borderopacity="1"
     objecttolerance="10"
     gridtolerance="10"
     guidetolerance="10"
     inkscape:pageopacity="0"
     inkscape:pageshadow="2"
     inkscape:window-width="1200"
     inkscape:window-height="704"
     id="namedview4458"
     showgrid="false"
     fit-margin-top="0"
     fit-margin-left="0"
     fit-margin-right="0"
     fit-margin-bottom="0"
     inkscape:zoom="10.429825"
     inkscape:cx="19.018289"
     inkscape:cy="15.642571"
     inkscape:window-x="0"
     inkscape:window-y="0"
     inkscape:window-maximized="0"
     inkscape:current-layer="Flat_copy" /><g
     id="Flat_copy"><g
       id="g4452"><path
         d="M 16,0 C 7.163,0 0,7.163 0,16 0,24.836 7.163,32 16,32 24.837,32 32,24.836 32,16 32,7.163 24.837,0 16,0 Z"
         id="path4454"
         inkscape:connector-curvature="0"
         style="fill:#000000;fill-opacity:1"
         inkscape:export-filename="/Users/tom/projects/tmcfarlin412.github.io/assets/images/twitter.png"
         inkscape:export-xdpi="135"
         inkscape:export-ydpi="135" /></g><path
       d="m 18.226,8.886 c -1.59,0.579 -2.595,2.071 -2.481,3.704 l 0.038,0.63 -0.636,-0.077 C 12.832,12.847 10.809,11.844 9.091,10.159 L 8.251,9.323 8.036,9.94 c -0.458,1.376 -0.165,2.83 0.789,3.808 0.509,0.54 0.394,0.617 -0.483,0.296 -0.305,-0.103 -0.573,-0.18 -0.598,-0.141 -0.089,0.09 0.216,1.26 0.458,1.724 0.331,0.644 1.005,1.273 1.743,1.647 l 0.624,0.296 -0.739,0.011 c -0.712,0 -0.738,0.013 -0.661,0.284 0.254,0.836 1.259,1.724 2.379,2.11 l 0.789,0.27 -0.687,0.412 c -1.018,0.593 -2.214,0.927 -3.41,0.951 -0.573,0.013 -1.044,0.064 -1.044,0.103 0,0.128 1.553,0.848 2.455,1.132 2.71,0.836 5.929,0.475 8.346,-0.952 1.718,-1.016 3.435,-3.036 4.237,-4.992 0.433,-1.041 0.865,-2.945 0.865,-3.858 0,-0.592 0.038,-0.669 0.75,-1.376 0.42,-0.412 0.814,-0.862 0.891,-0.99 0.128,-0.245 0.114,-0.245 -0.534,-0.026 -1.081,0.386 -1.234,0.335 -0.699,-0.244 0.394,-0.412 0.865,-1.158 0.865,-1.376 0,-0.038 -0.191,0.026 -0.407,0.141 -0.229,0.129 -0.738,0.322 -1.12,0.437 L 22.158,9.826 21.535,9.4 C 21.191,9.169 20.709,8.911 20.454,8.834 19.804,8.654 18.812,8.68 18.226,8.886 Z"
       id="path4456"
       inkscape:connector-curvature="0"
       style="fill:#ffffff" /></g></svg>